<svg xmlns="http://www.w3.org/2000/svg" width="61" height="24" viewBox="0 0 61 24">
  <g id="logo" transform="translate(-692.457 -442.161)">
    <g id="silk_n_logo" data-name="silk&apos;n_logo" transform="translate(692.457 442.161)">
      <g id="그룹_2" data-name="그룹 2" transform="translate(42.212 0)">
        <path id="패스_4" data-name="패스 4" d="M308.777,60.209a7.036,7.036,0,0,0-9.637,0,6.922,6.922,0,0,0-1.94,5.019v9.19h3.048v-9.19a3.721,3.721,0,1,1,7.42,0v9.19h3.048v-9.19a6.922,6.922,0,0,0-1.94-5.019" transform="translate(-294.937 -50.418)" fill="#fff"/>
        <path id="패스_5" data-name="패스 5" d="M285.179,12.011c-.169-3.679.616-4.68.616-4.7l.046-.062L285.7,7.1l-.062.031a5.464,5.464,0,0,0-2.479,5.049c.169,3.679-.616,4.68-.616,4.7l-.046.062.139.154.062-.031a5.549,5.549,0,0,0,2.478-5.049" transform="translate(-282.5 -7.1)" fill="#fff"/>
        <path id="패스_6" data-name="패스 6" d="M380.132,41.316h.4c.292,0,.431.092.431.277,0,.231-.123.308-.416.308h-.416Zm0,.862h.323l.523.862h.354l-.554-.877a.505.505,0,0,0,.523-.539c0-.416-.246-.57-.724-.57h-.754v2h.323v-.877Zm-1.016-.123a1.392,1.392,0,0,1,1.37-1.447,1.449,1.449,0,0,1,0,2.894,1.391,1.391,0,0,1-1.37-1.447m-.416,0a1.786,1.786,0,1,0,1.786-1.755,1.751,1.751,0,0,0-1.786,1.755" transform="translate(-363.891 -35.189)" fill="#fff"/>
      </g>
      <path id="패스_3" data-name="패스 3" d="M197.045,24.807l2.124-3.648h-3.464l-2.725,4.665a2.5,2.5,0,0,1-2.325,1.124h-1.108V14H186.5V36.938h3.048V29.856H192.7c1.57,0,2.432.97,2.432,2.74v4.341h3.048v-4.68a4.946,4.946,0,0,0-.939-3.217,4.38,4.38,0,0,0-2.494-1.416,7.245,7.245,0,0,0,2.294-2.817" transform="translate(-159.113 -12.938)" fill="#fff"/>
      <rect id="사각형_2" data-name="사각형 2" width="3.048" height="22.938" transform="translate(22.183 1.062)" fill="#fff"/>
      <g id="그룹_1" data-name="그룹 1" transform="translate(16.703 3.002)">
        <path id="패스_2" data-name="패스 2" d="M118.417,26.6a1.817,1.817,0,1,0,1.817,1.817,1.751,1.751,0,0,0-1.817-1.817" transform="translate(-116.6 -26.6)" fill="#fff"/>
        <rect id="사각형_1" data-name="사각형 1" width="3.048" height="15.795" transform="translate(0.292 5.203)" fill="#fff"/>
      </g>
      <path id="패스_1" data-name="패스 1" d="M15.805,23.591c-2.463-1.17-4.6-2.171-4.6-3.941a2.4,2.4,0,0,1,2.663-2.6h7.759V14H14.3A6.818,6.818,0,0,0,9.77,15.493a5.518,5.518,0,0,0-1.8,4.326c0,3.756,3.495,5.4,6.573,6.866,2.509,1.185,4.865,2.294,4.865,4.341,0,1.986-1.139,2.863-3.71,2.863H7.8v3.048h8.452c3.941,0,6.4-2.371,6.4-6.173,0-3.956-3.633-5.665-6.851-7.174" transform="translate(-7.8 -12.938)" fill="#fff"/>
    </g>
    <rect id="area" width="61" height="24" transform="translate(692.457 442.161)" fill="#fff" opacity="0"/>
  </g>
</svg>
